<?xml version="1.0" encoding="UTF-8" standalone="no"?>
<!DOCTYPE svg PUBLIC "-//W3C//DTD SVG 1.1//EN" "http://www.w3.org/Graphics/SVG/1.1/DTD/svg11.dtd">
<svg width="100%" height="100%" viewBox="0 0 34 13" version="1.1" xmlns="http://www.w3.org/2000/svg" xmlns:xlink="http://www.w3.org/1999/xlink" xml:space="preserve" xmlns:serif="http://www.serif.com/" style="fill-rule:evenodd;clip-rule:evenodd;stroke-linejoin:round;stroke-miterlimit:2;">
    <g id="Artboard1" transform="matrix(0.3681,0,0,1,0,0)">
        <rect x="0" y="0" width="91.795" height="12.576" style="fill:none;"/>
        <g transform="matrix(2.71666,0,0,1,-155.734,-25.7231)">
            <path d="M61.767,25.723C62.408,25.723 63.017,25.842 63.593,26.08C64.168,26.313 64.677,26.678 65.12,27.176C65.568,27.668 65.92,28.302 66.174,29.077C66.429,29.846 66.556,30.773 66.556,31.857L66.556,31.874C66.556,33.219 66.363,34.37 65.975,35.327C65.588,36.285 65.032,37.021 64.307,37.535C63.587,38.044 62.727,38.299 61.725,38.299C60.989,38.299 60.325,38.166 59.733,37.9C59.146,37.629 58.659,37.259 58.272,36.788C57.89,36.312 57.633,35.77 57.5,35.161L57.483,35.07L59.584,35.07L59.617,35.153C59.722,35.43 59.871,35.673 60.065,35.883C60.264,36.094 60.502,36.257 60.779,36.373C61.061,36.484 61.377,36.539 61.725,36.539C62.356,36.539 62.871,36.354 63.269,35.983C63.673,35.607 63.975,35.106 64.174,34.481C64.379,33.85 64.495,33.152 64.522,32.389C64.528,32.306 64.531,32.225 64.531,32.148L64.531,31.907L64.157,29.907C64.157,29.453 64.052,29.041 63.842,28.67C63.632,28.299 63.347,28.006 62.987,27.79C62.633,27.574 62.231,27.466 61.783,27.466C61.352,27.466 60.956,27.572 60.596,27.782C60.237,27.992 59.949,28.28 59.733,28.645C59.517,29.005 59.409,29.409 59.409,29.857L59.409,29.874C59.409,30.338 59.512,30.751 59.716,31.11C59.921,31.465 60.201,31.744 60.555,31.949C60.909,32.154 61.313,32.256 61.767,32.256C62.22,32.256 62.627,32.156 62.987,31.957C63.347,31.758 63.632,31.481 63.842,31.127C64.052,30.773 64.157,30.372 64.157,29.923L64.157,29.907L64.655,29.907L64.655,32.115L64.365,32.115C64.221,32.43 64.008,32.724 63.726,32.995C63.443,33.266 63.095,33.484 62.68,33.65C62.27,33.816 61.789,33.899 61.235,33.899C60.472,33.899 59.797,33.728 59.21,33.385C58.623,33.042 58.161,32.571 57.824,31.974C57.492,31.376 57.326,30.701 57.326,29.948L57.326,29.932C57.326,29.118 57.514,28.396 57.89,27.765C58.272,27.129 58.798,26.631 59.467,26.271C60.142,25.906 60.909,25.723 61.767,25.723ZM70.325,36.39C69.948,36.39 69.633,36.265 69.378,36.016C69.129,35.762 69.005,35.452 69.005,35.086C69.005,34.716 69.129,34.406 69.378,34.157C69.633,33.902 69.948,33.775 70.325,33.775C70.707,33.775 71.022,33.902 71.271,34.157C71.52,34.406 71.644,34.716 71.644,35.086C71.644,35.452 71.52,35.762 71.271,36.016C71.022,36.265 70.707,36.39 70.325,36.39ZM70.325,30.231C69.948,30.231 69.633,30.106 69.378,29.857C69.129,29.602 69.005,29.293 69.005,28.927C69.005,28.557 69.129,28.247 69.378,27.998C69.633,27.743 69.948,27.616 70.325,27.616C70.707,27.616 71.022,27.743 71.271,27.998C71.52,28.247 71.644,28.557 71.644,28.927C71.644,29.293 71.52,29.602 71.271,29.857C71.022,30.106 70.707,30.231 70.325,30.231ZM79.904,38L79.904,35.701L74.044,35.701L74.044,33.949C74.359,33.412 74.674,32.873 74.99,32.331C75.311,31.788 75.634,31.249 75.961,30.712C76.293,30.17 76.622,29.636 76.949,29.11C77.281,28.579 77.61,28.056 77.937,27.541C78.269,27.021 78.601,26.515 78.933,26.022L81.946,26.022L81.946,33.933L83.565,33.933L83.565,35.701L81.946,35.701L81.946,38L79.904,38ZM76.036,33.982L79.937,33.982L79.937,27.732L79.813,27.732C79.569,28.108 79.317,28.496 79.057,28.894C78.803,29.293 78.545,29.699 78.285,30.114C78.025,30.529 77.768,30.947 77.513,31.368C77.259,31.783 77.007,32.2 76.758,32.621C76.509,33.036 76.268,33.448 76.036,33.858L76.036,33.982ZM88.52,38L88.52,28.13L88.371,28.13L85.391,30.231L85.391,28.222L88.52,26.022L90.653,26.022L90.653,38L88.52,38Z" style="fill-rule:nonzero;"/>
        </g>
    </g>
</svg>
