<svg width="201" height="50" viewBox="0 0 201 50" fill="none" xmlns="http://www.w3.org/2000/svg">
    <path
        d="M61.7666 25.7231C62.4085 25.7231 63.0173 25.8421 63.5928 26.0801C64.1683 26.3125 64.6774 26.6777 65.1201 27.1758C65.5684 27.6683 65.9198 28.3019 66.1743 29.0767C66.4289 29.8459 66.5562 30.7728 66.5562 31.8574V31.874C66.5562 33.2188 66.3625 34.3698 65.9751 35.3271C65.5877 36.2845 65.0316 37.0205 64.3066 37.5352C63.5872 38.0443 62.7267 38.2988 61.7251 38.2988C60.9891 38.2988 60.325 38.166 59.7329 37.9004C59.1463 37.6292 58.6593 37.2585 58.272 36.7881C57.8901 36.3122 57.6328 35.7699 57.5 35.1611L57.4834 35.0698H59.5835L59.6167 35.1528C59.7218 35.4295 59.8713 35.673 60.0649 35.8833C60.2642 36.0936 60.5021 36.2568 60.7788 36.373C61.061 36.4837 61.3765 36.5391 61.7251 36.5391C62.356 36.5391 62.8706 36.3537 63.269 35.9829C63.673 35.6066 63.9746 35.1058 64.1738 34.4805C64.3786 33.8496 64.4948 33.1523 64.5225 32.3887C64.528 32.3057 64.5308 32.2254 64.5308 32.1479C64.5308 32.0649 64.5308 31.9847 64.5308 31.9072L64.1572 29.9067C64.1572 29.453 64.0521 29.0407 63.8418 28.6699C63.6315 28.2992 63.3465 28.0059 62.9868 27.79C62.6326 27.5742 62.2314 27.4663 61.7832 27.4663C61.3516 27.4663 60.9559 27.5715 60.5962 27.7817C60.2365 27.992 59.9487 28.2798 59.7329 28.645C59.5171 29.0047 59.4092 29.4087 59.4092 29.8569V29.8735C59.4092 30.3384 59.5116 30.7507 59.7163 31.1104C59.9211 31.4645 60.2005 31.744 60.5547 31.9487C60.9089 32.1535 61.3128 32.2559 61.7666 32.2559C62.2204 32.2559 62.6271 32.1562 62.9868 31.957C63.3465 31.7578 63.6315 31.4811 63.8418 31.127C64.0521 30.7728 64.1572 30.3716 64.1572 29.9233V29.9067H64.6553V32.1147H64.3647C64.2209 32.4302 64.0078 32.7235 63.7256 32.9946C63.4434 33.2658 63.0947 33.4844 62.6797 33.6504C62.2702 33.8164 61.7887 33.8994 61.2354 33.8994C60.4717 33.8994 59.7965 33.7279 59.21 33.3848C58.6234 33.0417 58.1613 32.5713 57.8237 31.9736C57.4917 31.376 57.3257 30.7008 57.3257 29.9482V29.9316C57.3257 29.1182 57.5138 28.396 57.8901 27.7651C58.272 27.1287 58.7977 26.6307 59.4673 26.271C60.1424 25.9058 60.9089 25.7231 61.7666 25.7231ZM70.3247 36.3896C69.9484 36.3896 69.633 36.2651 69.3784 36.0161C69.1294 35.7616 69.0049 35.4517 69.0049 35.0864C69.0049 34.7157 69.1294 34.4058 69.3784 34.1567C69.633 33.9022 69.9484 33.7749 70.3247 33.7749C70.7065 33.7749 71.022 33.9022 71.271 34.1567C71.52 34.4058 71.6445 34.7157 71.6445 35.0864C71.6445 35.4517 71.52 35.7616 71.271 36.0161C71.022 36.2651 70.7065 36.3896 70.3247 36.3896ZM70.3247 30.2305C69.9484 30.2305 69.633 30.106 69.3784 29.8569C69.1294 29.6024 69.0049 29.2925 69.0049 28.9272C69.0049 28.5565 69.1294 28.2466 69.3784 27.9976C69.633 27.743 69.9484 27.6157 70.3247 27.6157C70.7065 27.6157 71.022 27.743 71.271 27.9976C71.52 28.2466 71.6445 28.5565 71.6445 28.9272C71.6445 29.2925 71.52 29.6024 71.271 29.8569C71.022 30.106 70.7065 30.2305 70.3247 30.2305ZM79.9038 38V35.7007H74.0435V33.9492C74.3589 33.4124 74.6743 32.8729 74.9897 32.3306C75.3107 31.7882 75.6344 31.2487 75.9609 30.7119C76.293 30.1696 76.6222 29.6356 76.9487 29.1099C77.2808 28.5786 77.61 28.0557 77.9365 27.541C78.2686 27.0208 78.6006 26.5145 78.9326 26.022H81.9458V33.9326H83.5645V35.7007H81.9458V38H79.9038ZM76.0356 33.9824H79.937V27.7319H79.8125C79.569 28.1082 79.3172 28.4956 79.0571 28.894C78.8026 29.2925 78.5452 29.6992 78.2852 30.1143C78.0251 30.5293 77.7677 30.9471 77.5132 31.3677C77.2586 31.7827 77.0068 32.2005 76.7578 32.6211C76.5088 33.0361 76.2681 33.4484 76.0356 33.8579V33.9824ZM88.52 38V28.1304H88.3706L85.3906 30.2305V28.2217L88.52 26.022H90.6533V38H88.52Z"
        fill="black" />
</svg>