<?xml version="1.0" encoding="UTF-8" standalone="no"?>
<!DOCTYPE svg PUBLIC "-//W3C//DTD SVG 1.1//EN" "http://www.w3.org/Graphics/SVG/1.1/DTD/svg11.dtd">
<svg width="100%" height="100%" viewBox="0 0 78 13" version="1.1" xmlns="http://www.w3.org/2000/svg" xmlns:xlink="http://www.w3.org/1999/xlink" xml:space="preserve" xmlns:serif="http://www.serif.com/" style="fill-rule:evenodd;clip-rule:evenodd;">
    <rect id="Artboard1" x="0" y="0" width="77.67" height="12.328" style="fill:none;"/>
    <clipPath id="_clip1">
        <rect id="Artboard11" serif:id="Artboard1" x="0" y="0" width="77.67" height="12.328"/>
    </clipPath>
    <g clip-path="url(#_clip1)">
        <g transform="matrix(1,0,0,1,-87.665,-25.8359)">
            <path d="M106.865,27.033C106.865,26.4 106.388,25.887 105.798,25.887L104.732,25.887C104.143,25.887 103.665,26.4 103.665,27.033L103.665,36.967C103.665,37.6 104.143,38.113 104.732,38.113L105.798,38.113C106.388,38.113 106.865,37.6 106.865,36.967L106.865,27.033ZM99.431,28.332L100.498,28.332C101.087,28.332 101.564,28.858 101.564,29.506L101.564,36.94C101.564,37.588 101.087,38.113 100.498,38.113L99.431,38.113C98.842,38.113 98.364,37.588 98.364,36.94L98.364,29.506C98.364,28.858 98.842,28.332 99.431,28.332ZM95.099,30.981L94.033,30.981C93.443,30.981 92.966,31.513 92.966,32.17L92.966,36.925C92.966,37.581 93.443,38.113 94.033,38.113L95.099,38.113C95.688,38.113 96.166,37.581 96.166,36.925L96.166,32.17C96.166,31.513 95.688,30.981 95.099,30.981ZM89.798,33.426L88.732,33.426C88.143,33.426 87.665,33.951 87.665,34.598L87.665,36.942C87.665,37.589 88.143,38.113 88.732,38.113L89.798,38.113C90.388,38.113 90.865,37.589 90.865,36.942L90.865,34.598C90.865,33.951 90.388,33.426 89.798,33.426Z" style="fill:white;"/>
            <path d="M122.436,28.302C124.924,28.302 127.316,29.224 129.118,30.878C129.254,31.005 129.471,31.004 129.604,30.874L130.902,29.611C130.97,29.545 131.007,29.456 131.007,29.363C131.006,29.27 130.967,29.182 130.899,29.117C126.168,24.742 118.704,24.742 113.973,29.117C113.905,29.182 113.866,29.27 113.865,29.363C113.865,29.456 113.902,29.545 113.97,29.611L115.268,30.874C115.401,31.004 115.618,31.006 115.754,30.878C117.557,29.224 119.949,28.302 122.436,28.302ZM122.433,32.522C123.79,32.522 125.099,33.034 126.105,33.958C126.241,34.089 126.456,34.087 126.589,33.952L127.876,32.633C127.944,32.563 127.981,32.469 127.98,32.372C127.979,32.274 127.94,32.181 127.871,32.113C124.807,29.223 120.062,29.223 116.998,32.113C116.929,32.181 116.89,32.274 116.889,32.372C116.888,32.469 116.925,32.563 116.993,32.633L118.28,33.952C118.413,34.087 118.627,34.089 118.763,33.958C119.769,33.035 121.077,32.523 122.433,32.522ZM124.958,35.316C124.959,35.421 124.922,35.523 124.855,35.597L122.678,38.051C122.615,38.124 122.528,38.164 122.437,38.164C122.346,38.164 122.259,38.124 122.195,38.051L120.018,35.597C119.951,35.523 119.914,35.421 119.916,35.316C119.918,35.211 119.959,35.111 120.029,35.04C121.419,33.726 123.455,33.726 124.845,35.04C124.915,35.111 124.956,35.211 124.958,35.316Z" style="fill:white;"/>
            <path d="M162.507,29.8L162.507,34.2C162.507,36.297 160.804,38 158.707,38L142.307,38C140.21,38 138.507,36.297 138.507,34.2L138.507,29.8C138.507,27.703 140.21,26 142.307,26L158.707,26C160.804,26 162.507,27.703 162.507,29.8Z" style="fill:none;stroke:white;stroke-opacity:0.35;stroke-width:1px;"/>
            <path d="M164.007,30.281L164.007,34.357C164.812,34.011 165.335,33.209 165.335,32.319C165.335,31.429 164.812,30.626 164.007,30.281" style="fill:white;fill-opacity:0.4;fill-rule:nonzero;"/>
            <path d="M161.007,30L161.007,34C161.007,35.38 159.887,36.5 158.507,36.5L142.507,36.5C141.127,36.5 140.007,35.38 140.007,34L140.007,30C140.007,28.62 141.127,27.5 142.507,27.5L158.507,27.5C159.887,27.5 161.007,28.62 161.007,30Z" style="fill:white;"/>
        </g>
    </g>
</svg>
