<svg width="201" height="50" viewBox="201 0 201 50" fill="none" xmlns="http://www.w3.org/2000/svg">
    <path fill-rule="evenodd" clip-rule="evenodd"
        d="M307.865 27.033C307.865 26.4 307.388 25.8868 306.798 25.8868H305.732C305.143 25.8868 304.665 26.4 304.665 27.033V36.967C304.665 37.6 305.143 38.1132 305.732 38.1132H306.798C307.388 38.1132 307.865 37.6 307.865 36.967V27.033ZM300.431 28.3321H301.498C302.087 28.3321 302.564 28.8576 302.564 29.5058V36.9395C302.564 37.5877 302.087 38.1132 301.498 38.1132H300.431C299.842 38.1132 299.364 37.5877 299.364 36.9395V29.5058C299.364 28.8576 299.842 28.3321 300.431 28.3321ZM296.099 30.9811H295.033C294.443 30.9811 293.966 31.5133 293.966 32.1698V36.9245C293.966 37.581 294.443 38.1132 295.033 38.1132H296.099C296.688 38.1132 297.166 37.581 297.166 36.9245V32.1698C297.166 31.5133 296.688 30.9811 296.099 30.9811ZM290.798 33.4264H289.732C289.143 33.4264 288.665 33.951 288.665 34.5981V36.9415C288.665 37.5886 289.143 38.1132 289.732 38.1132H290.798C291.388 38.1132 291.865 37.5886 291.865 36.9415V34.5981C291.865 33.951 291.388 33.4264 290.798 33.4264Z"
        fill="white" />
    <path fill-rule="evenodd" clip-rule="evenodd"
        d="M323.436 28.3021C325.924 28.3022 328.316 29.2243 330.118 30.8778C330.254 31.0054 330.471 31.0038 330.604 30.8742L331.902 29.6107C331.97 29.545 332.007 29.4559 332.007 29.3632C332.006 29.2705 331.967 29.1819 331.899 29.1169C327.168 24.7422 319.704 24.7422 314.973 29.1169C314.905 29.1818 314.866 29.2704 314.865 29.3631C314.865 29.4558 314.902 29.5449 314.97 29.6107L316.268 30.8742C316.401 31.004 316.618 31.0056 316.754 30.8778C318.557 29.2242 320.949 28.3021 323.436 28.3021ZM323.433 32.5224C324.79 32.5223 326.099 33.0341 327.105 33.9582C327.241 34.0893 327.456 34.0865 327.589 33.9518L328.876 32.6325C328.944 32.5633 328.981 32.4694 328.98 32.3718C328.979 32.2743 328.94 32.1812 328.871 32.1134C325.807 29.2226 321.062 29.2226 317.998 32.1134C317.929 32.1812 317.89 32.2743 317.889 32.3719C317.888 32.4695 317.925 32.5634 317.993 32.6325L319.28 33.9518C319.413 34.0865 319.627 34.0893 319.763 33.9582C320.769 33.0347 322.077 32.523 323.433 32.5224ZM325.958 35.316C325.959 35.4213 325.922 35.5229 325.855 35.5967L323.678 38.0514C323.615 38.1236 323.528 38.1642 323.437 38.1642C323.346 38.1642 323.259 38.1236 323.195 38.0514L321.018 35.5967C320.951 35.5228 320.914 35.4212 320.916 35.3159C320.918 35.2105 320.959 35.1108 321.029 35.0401C322.419 33.7262 324.455 33.7262 325.845 35.0401C325.915 35.1108 325.956 35.2106 325.958 35.316Z"
        fill="white" />
    <rect opacity="0.35" x="339.507" y="26" width="24" height="12" rx="3.8" stroke="white" />
    <path opacity="0.4"
        d="M365.007 30.2811V34.3566C365.812 34.0114 366.335 33.2085 366.335 32.3189C366.335 31.4293 365.812 30.6263 365.007 30.2811"
        fill="white" />
    <rect x="341.007" y="27.5" width="21" height="9" rx="2.5" fill="white" />
</svg>
